HIERARCHY
ROOT Hips
{
	OFFSET 1.275320 93.886100 21.070700
	CHANNELS 6 Xposition Yposition Zposition Zrotation Yrotation Xrotation 
	JOINT Spine
	{
		OFFSET 0.000000 9.923500 -1.227300
		CHANNELS 3 Zrotation Yrotation Xrotation
		JOINT Spine1
		{
			OFFSET -0.000100 11.645400 -1.422300
			CHANNELS 3 Zrotation Yrotation Xrotation
			JOINT Spine2
			{
				OFFSET 0.000100 13.360200 -1.626500
				CHANNELS 3 Zrotation Yrotation Xrotation
				JOINT Neck
				{
					OFFSET 0.000000 15.032500 0.792900
					CHANNELS 3 Zrotation Yrotation Xrotation
					JOINT Head
					{
						OFFSET 0.000000 10.321800 3.142400
						CHANNELS 3 Zrotation Yrotation Xrotation
						JOINT HeadTop_End
						{
							OFFSET 0.000200 18.474700 6.636400
							CHANNELS 3 Zrotation Yrotation Xrotation
							End Site
							{
								OFFSET 0.000000 0.000000 0.000000
							}
						}
						JOINT LeftEye
						{
							OFFSET 2.947900 7.681700 9.120700
							CHANNELS 3 Zrotation Yrotation Xrotation
							End Site
							{
								OFFSET 0.000000 0.000000 0.000000
							}
						}
						JOINT RightEye
						{
							OFFSET -2.944500 7.681700 9.120500
							CHANNELS 3 Zrotation Yrotation Xrotation
							End Site
							{
								OFFSET 0.000000 0.000000 0.000000
							}
						}
					}
				}
				JOINT LeftShoulder
				{
					OFFSET 6.105800 9.110400 0.705600
					CHANNELS 3 Zrotation Yrotation Xrotation
					JOINT LeftArm
					{
						OFFSET 12.655000 -0.265900 -2.600900
						CHANNELS 3 Zrotation Yrotation Xrotation
						JOINT LeftForeArm
						{
							OFFSET 27.404700 0.000000 0.000000
							CHANNELS 3 Zrotation Yrotation Xrotation
							JOINT LeftHand
							{
								OFFSET 27.614500 0.000000 0.000000
								CHANNELS 3 Zrotation Yrotation Xrotation
								JOINT LeftHandMiddle1
								{
									OFFSET 12.775500 0.000000 0.000000
									CHANNELS 3 Zrotation Yrotation Xrotation
									JOINT LeftHandMiddle2
									{
										OFFSET 3.614000 0.000000 0.000000
										CHANNELS 3 Zrotation Yrotation Xrotation
										JOINT LeftHandMiddle3
										{
											OFFSET 3.459800 0.000000 0.000000
											CHANNELS 3 Zrotation Yrotation Xrotation
											End Site
											{
												OFFSET 0.000000 0.000000 0.000000
											}
										}
									}
								}
								JOINT LeftHandThumb1
								{
									OFFSET 3.788800 -2.167000 3.003100
									CHANNELS 3 Zrotation Yrotation Xrotation
									JOINT LeftHandThumb2
									{
										OFFSET 3.675400 -2.122000 2.122000
										CHANNELS 3 Zrotation Yrotation Xrotation
										JOINT LeftHandThumb3
										{
											OFFSET 3.394400 -1.959700 1.959800
											CHANNELS 3 Zrotation Yrotation Xrotation
											End Site
											{
												OFFSET 0.000000 0.000000 0.000000
											}
										}
									}
								}
								JOINT LeftHandIndex1
								{
									OFFSET 12.266600 -0.231700 2.822100
									CHANNELS 3 Zrotation Yrotation Xrotation
									JOINT LeftHandIndex2
									{
										OFFSET 3.892000 0.000000 0.000000
										CHANNELS 3 Zrotation Yrotation Xrotation
										JOINT LeftHandIndex3
										{
											OFFSET 3.415200 0.000000 0.000000
											CHANNELS 3 Zrotation Yrotation Xrotation
											End Site
											{
												OFFSET 0.000000 0.000000 0.000000
											}
										}
									}
								}
								JOINT LeftHandRing1
								{
									OFFSET 12.147000 0.009900 -2.216600
									CHANNELS 3 Zrotation Yrotation Xrotation
									JOINT LeftHandRing2
									{
										OFFSET 3.601200 0.000000 0.000000
										CHANNELS 3 Zrotation Yrotation Xrotation
										JOINT LeftHandRing3
										{
											OFFSET 3.307300 0.000000 0.000000
											CHANNELS 3 Zrotation Yrotation Xrotation
											End Site
											{
												OFFSET 0.000000 0.000000 0.000000
											}
										}
									}
								}
								JOINT LeftHandPinky1
								{
									OFFSET 10.908200 -0.226400 -4.725800
									CHANNELS 3 Zrotation Yrotation Xrotation
									JOINT LeftHandPinky2
									{
										OFFSET 4.136700 0.000000 0.000000
										CHANNELS 3 Zrotation Yrotation Xrotation
										JOINT LeftHandPinky3
										{
											OFFSET 2.594800 0.000000 0.000000
											CHANNELS 3 Zrotation Yrotation Xrotation
											End Site
											{
												OFFSET 0.000000 0.000000 0.000000
											}
										}
									}
								}
							}
						}
					}
				}
				JOINT RightShoulder
				{
					OFFSET -6.105700 9.110500 0.705600
					CHANNELS 3 Zrotation Yrotation Xrotation
					JOINT RightArm
					{
						OFFSET -12.655000 -0.266000 -2.600900
						CHANNELS 3 Zrotation Yrotation Xrotation
						JOINT RightForeArm
						{
							OFFSET -27.404700 0.000000 0.000000
							CHANNELS 3 Zrotation Yrotation Xrotation
							JOINT RightHand
							{
								OFFSET -27.614500 0.000000 0.000000
								CHANNELS 3 Zrotation Yrotation Xrotation
								JOINT RightHandMiddle1
								{
									OFFSET -12.775500 0.000000 0.000000
									CHANNELS 3 Zrotation Yrotation Xrotation
									JOINT RightHandMiddle2
									{
										OFFSET -3.614000 0.000000 0.000000
										CHANNELS 3 Zrotation Yrotation Xrotation
										JOINT RightHandMiddle3
										{
											OFFSET -3.459800 0.000000 0.000000
											CHANNELS 3 Zrotation Yrotation Xrotation
											End Site
											{
												OFFSET 0.000000 0.000000 0.000000
											}
										}
									}
								}
								JOINT RightHandThumb1
								{
									OFFSET -3.788800 -2.167000 3.003100
									CHANNELS 3 Zrotation Yrotation Xrotation
									JOINT RightHandThumb2
									{
										OFFSET -3.675400 -2.122000 2.122000
										CHANNELS 3 Zrotation Yrotation Xrotation
										JOINT RightHandThumb3
										{
											OFFSET -3.394400 -1.959700 1.959800
											CHANNELS 3 Zrotation Yrotation Xrotation
											End Site
											{
												OFFSET 0.000000 0.000000 0.000000
											}
										}
									}
								}
								JOINT RightHandIndex1
								{
									OFFSET -12.266600 -0.231700 2.822100
									CHANNELS 3 Zrotation Yrotation Xrotation
									JOINT RightHandIndex2
									{
										OFFSET -3.892000 0.000000 0.000000
										CHANNELS 3 Zrotation Yrotation Xrotation
										JOINT RightHandIndex3
										{
											OFFSET -3.415200 0.000000 0.000000
											CHANNELS 3 Zrotation Yrotation Xrotation
											End Site
											{
												OFFSET 0.000000 0.000000 0.000000
											}
										}
									}
								}
								JOINT RightHandRing1
								{
									OFFSET -12.147000 0.009900 -2.216600
									CHANNELS 3 Zrotation Yrotation Xrotation
									JOINT RightHandRing2
									{
										OFFSET -3.601200 0.000000 0.000000
										CHANNELS 3 Zrotation Yrotation Xrotation
										JOINT RightHandRing3
										{
											OFFSET -3.307300 0.000000 0.000000
											CHANNELS 3 Zrotation Yrotation Xrotation
											End Site
											{
												OFFSET 0.000000 0.000000 0.000000
											}
										}
									}
								}
								JOINT RightHandPinky1
								{
									OFFSET -10.908200 -0.226400 -4.725800
									CHANNELS 3 Zrotation Yrotation Xrotation
									JOINT RightHandPinky2
									{
										OFFSET -4.136700 0.000000 0.000000
										CHANNELS 3 Zrotation Yrotation Xrotation
										JOINT RightHandPinky3
										{
											OFFSET -2.594800 0.000000 0.000000
											CHANNELS 3 Zrotation Yrotation Xrotation
											End Site
											{
												OFFSET 0.000000 0.000000 0.000000
											}
										}
									}
								}
							}
						}
					}
				}
			}
		}
	}
	JOINT RightUpLeg
	{
		OFFSET -9.124500 -6.656400 -0.055400
		CHANNELS 3 Zrotation Yrotation Xrotation
		JOINT RightLeg
		{
			OFFSET -0.244700 -40.595400 -0.514500
			CHANNELS 3 Zrotation Yrotation Xrotation
			JOINT RightFoot
			{
				OFFSET 0.244700 -42.047900 -2.060200
				CHANNELS 3 Zrotation Yrotation Xrotation
				JOINT RightToeBase
				{
					OFFSET -0.373400 -10.492200 12.640700
					CHANNELS 3 Zrotation Yrotation Xrotation
					End Site
					{
						OFFSET 0.000000 0.000000 0.000000
					}
				}
			}
		}
	}
	JOINT LeftUpLeg
	{
		OFFSET 9.124500 -6.656400 -0.055400
		CHANNELS 3 Zrotation Yrotation Xrotation
		JOINT LeftLeg
		{
			OFFSET 0.244700 -40.595400 -0.517000
			CHANNELS 3 Zrotation Yrotation Xrotation
			JOINT LeftFoot
			{
				OFFSET -0.244700 -42.048000 -2.057600
				CHANNELS 3 Zrotation Yrotation Xrotation
				JOINT LeftToeBase
				{
					OFFSET 0.373400 -10.492200 12.640700
					CHANNELS 3 Zrotation Yrotation Xrotation
					End Site
					{
						OFFSET 0.000000 0.000000 0.000000
					}
				}
			}
		}
	}
}
MOTION
Frames: 6
Frame Time: 0.016667
1.275320 93.886100 21.070700 -6.071991 -24.140820 9.505278 0.569627 5.390520 8.036866 -0.893183 0.754363 0.785322 -0.886036 0.747061 0.919822 -6.338567 3.236171 4.565456 6.816094 4.945238 -4.907181 0.000000 0.000000 -0.000000 0.000000 0.000000 -0.000000 0.000000 0.000000 -0.000000 -1.409829 -1.068210 0.608739 -66.715450 10.827417 -4.259883 0.000032 -64.109300 -0.000016 -7.096973 -1.231903 10.893049 -4.256554 -7.914092 0.122410 -16.596411 1.973315 -0.287833 -11.260933 1.349396 -0.133052 9.088875 17.215478 1.562174 -0.717186 2.743469 1.509340 2.986455 -0.921106 -2.122414 -1.736293 -9.031836 0.180545 -13.293734 1.588822 -0.185159 -7.556402 0.908796 -0.060003 -7.210348 -6.947726 0.058682 -21.316003 2.510785 -0.472583 -15.434095 1.838723 -0.249176 -9.003215 -2.395760 -0.033360 -26.147070 -0.655510 1.089831 -18.213342 2.159191 -0.346157 -7.604281 8.765760 -5.039078 61.995525 -6.154181 38.076432 -0.000022 83.189800 0.000007 13.586279 3.176082 8.897968 58.440224 -6.999364 -3.286529 82.547028 -6.887133 -6.046531 77.175592 -6.778496 -5.480244 -7.715648 -15.607235 8.147384 11.046771 -7.589211 19.617588 -12.587182 -38.809448 2.623742 56.357785 -6.589364 -3.058362 85.447091 -6.923560 -6.395288 77.985330 -6.794567 -5.502916 61.453612 -7.569795 -3.653351 77.979937 -6.794415 -5.502260 76.304039 -6.755744 -5.391897 64.220384 -8.078059 -4.019114 74.061613 -6.680731 -5.042386 75.721475 -6.732717 -5.236230 3.317713 -18.723559 -16.159392 -14.715434 0.769438 33.733150 2.014280 -28.312463 -10.881686 -0.000004 0.000043 -4.779630 -1.572594 10.268234 -24.155086 2.001480 2.333192 54.850605 -0.534640 3.590478 -2.940717 2.668670 0.748843 -34.783999 
1.273070 93.644600 22.201300 -5.859858 -24.429422 9.579822 0.208518 5.021827 8.496183 -0.809772 0.695489 0.442686 -0.803728 0.690122 0.577179 -6.323434 3.169860 4.108537 6.930140 4.931522 -5.888364 0.000000 0.000000 0.000000 0.000000 0.000000 0.000000 0.000000 0.000000 0.000000 -1.345682 -1.807283 0.680167 -65.382494 11.753825 -4.413133 0.000044 -65.106800 -0.000023 -7.174104 -1.445509 10.500980 -4.735237 -7.634397 0.105584 -16.000295 1.904399 -0.267670 -10.991215 1.317497 -0.126770 9.093455 17.237260 1.576514 -0.717186 2.743469 1.509340 2.979288 -0.885039 -2.099141 -2.202026 -8.874091 0.171106 -12.955355 1.549113 -0.175901 -7.496700 0.901648 -0.059069 -7.727239 -6.508689 0.034216 -20.348066 2.401852 -0.431087 -14.930547 1.780155 -0.233283 -9.573345 -1.808509 -0.057820 -24.805080 -0.843142 1.072276 -17.585860 2.087257 -0.322892 -7.378050 8.786181 -5.013864 60.630400 -6.012364 38.495419 -0.000081 84.419800 -0.000083 13.716840 3.434621 8.293401 58.037795 -6.759765 -3.235969 82.521924 -6.886753 -6.043534 77.179223 -6.779089 -5.469112 -7.875360 -15.486524 8.005164 11.046771 -7.589211 19.617588 -12.535301 -38.765780 2.568516 56.215414 -6.393383 -3.031793 85.447091 -6.923560 -6.395288 77.966620 -6.794095 -5.500695 60.718202 -7.270237 -3.571138 77.935101 -6.793330 -5.496960 76.331190 -6.757156 -5.379416 63.180577 -7.721111 -3.908227 74.061613 -6.680731 -5.042386 75.754523 -6.733681 -5.240117 2.703433 -18.524417 -16.130215 -14.869761 0.675423 34.156001 2.678061 -28.318550 -11.279305 0.000010 0.000009 -4.144130 -0.484104 11.201921 -26.957507 1.194479 2.744430 58.655327 -3.526611 3.517756 0.161335 4.841615 1.243434 -36.101338 
1.280570 93.328000 23.293300 -5.566464 -24.718595 9.705336 -0.180880 4.700416 8.999979 -0.762130 0.645316 0.139942 -0.757437 0.641024 0.274434 -6.307102 3.079267 3.678068 7.114679 4.804248 -7.088863 0.000000 0.000000 0.000000 0.000000 0.000000 0.000000 0.000000 0.000000 0.000000 -1.365505 -2.655152 0.767695 -63.645215 12.662943 -4.378039 -0.000018 -66.099000 0.000007 -7.321983 -1.714146 10.121877 -5.116366 -7.323323 0.079830 -15.361785 1.830323 -0.246870 -10.722307 1.285657 -0.120637 9.111848 17.276117 1.593142 -0.717186 2.743469 1.509340 2.973197 -0.855152 -2.080002 -2.618405 -8.617362 0.147926 -12.381656 1.481644 -0.160716 -7.420242 0.892511 -0.057885 -8.083470 -6.118450 0.006101 -19.572017 2.314014 -0.399163 -14.465598 1.725937 -0.219052 -9.924624 -1.338239 -0.082465 -23.867375 -0.973954 1.057393 -17.002646 2.020162 -0.301996 -7.290363 8.747130 -5.008894 59.146726 -5.698443 39.004651 0.000110 85.726600 0.000116 13.931831 3.628922 7.743772 57.782567 -6.577418 -3.196904 82.505558 -6.886500 -6.041557 77.179848 -6.779762 -5.457034 -7.968073 -15.382781 7.900142 11.046771 -7.589211 19.617588 -12.497151 -38.733473 2.527777 56.162059 -6.254295 -3.012265 85.447091 -6.923560 -6.395288 77.953907 -6.793763 -5.499181 60.206927 -7.029906 -3.505254 77.903371 -6.792487 -5.493194 76.345242 -6.758426 -5.365371 62.437283 -7.426164 -3.817174 74.061613 -6.680731 -5.042386 75.768963 -6.734121 -5.241813 1.908466 -18.196024 -16.192583 -14.841891 0.622047 34.867753 3.382138 -28.497785 -11.864086 -0.000015 0.000008 -3.810390 0.063710 11.877914 -30.007202 1.554381 3.548387 62.570292 -4.394140 3.696969 0.047774 4.626455 0.970983 -32.424126 
1.301750 92.921700 24.339500 -5.247878 -24.995366 9.894837 -0.515665 4.433251 9.542346 -0.755974 0.605811 -0.086413 -0.752900 0.601423 0.048150 -6.266361 2.957923 3.290969 7.314411 4.577600 -8.491686 0.000000 -0.000000 -0.000000 0.000000 -0.000000 -0.000000 0.000000 -0.000000 -0.000000 -1.442951 -3.592917 0.869462 -61.551512 13.519723 -4.182847 0.000041 -67.059400 -0.000014 -7.482586 -2.074807 9.739297 -5.442964 -6.998967 0.052470 -14.654056 1.747937 -0.224771 -10.467620 1.255467 -0.115019 9.136847 17.319882 1.608438 -0.717186 2.743469 1.509340 2.967043 -0.824347 -2.060193 -3.022827 -8.290602 0.121135 -11.565993 1.385456 -0.140337 -7.335001 0.882328 -0.056556 -8.331097 -5.782730 -0.020575 -18.933118 2.241362 -0.373776 -14.060765 1.678669 -0.207025 -10.118032 -0.980579 -0.103325 -23.251457 -1.059753 1.046489 -16.498439 1.962006 -0.284469 -7.287355 8.613490 -5.003384 57.511478 -5.169880 39.558977 -0.000037 87.066100 0.000002 14.256896 3.768419 7.246251 57.666851 -6.447112 -3.168629 82.497324 -6.886363 -6.040568 77.175868 -6.780414 -5.443254 -8.009715 -15.294234 7.826073 11.046771 -7.589211 19.617588 -12.471281 -38.711470 2.500127 56.203534 -6.175525 -3.001091 85.447091 -6.923560 -6.395288 77.943945 -6.793528 -5.498010 59.895589 -6.833292 -3.452635 77.883241 -6.791996 -5.490822 76.346669 -6.759484 -5.348767 61.951367 -7.168934 -3.740633 74.061613 -6.680731 -5.042386 75.766524 -6.734044 -5.241541 1.014221 -17.777534 -16.317015 -14.672736 0.628876 35.795389 4.450816 -28.718004 -12.812666 0.000005 -0.000011 -3.920810 0.507575 12.189651 -33.581678 2.743914 4.382097 66.346132 -5.677454 4.539810 -0.525479 3.642785 0.646351 -28.367469 
1.339970 92.413800 25.342000 -4.952085 -25.222054 10.157005 -0.720932 4.224789 10.090705 -0.799051 0.578197 -0.210377 -0.797687 0.572425 -0.075728 -6.179182 2.801558 2.953964 7.489663 4.258645 -10.038101 0.000000 0.000000 -0.000000 0.000000 0.000000 -0.000000 0.000000 0.000000 -0.000000 -1.549710 -4.589180 0.980769 -59.143921 14.266454 -3.812482 0.000026 -67.885400 -0.000014 -7.609063 -2.546708 9.377966 -5.761891 -6.658449 0.027262 -13.838685 1.652700 -0.200574 -10.239660 1.228428 -0.110077 9.168731 17.365370 1.620510 -0.717186 2.743469 1.509340 2.960456 -0.790789 -2.038504 -3.472173 -7.886359 0.096660 -10.445204 1.252817 -0.114522 -7.244629 0.871516 -0.055165 -8.507098 -5.504028 -0.044021 -18.416675 2.182448 -0.353844 -13.745069 1.641740 -0.197877 -10.183843 -0.742573 -0.120117 -22.959992 -1.100298 1.040982 -16.116989 1.917888 -0.271590 -7.332022 8.349869 -4.983973 55.722618 -4.391776 40.119115 0.000088 88.385600 0.000110 14.713089 3.859740 6.823440 57.732326 -6.377146 -3.157175 82.499459 -6.886410 -6.040820 77.163715 -6.781010 -5.425546 -8.009357 -15.228124 7.784487 11.046771 -7.589211 19.617588 -12.456191 -38.698220 2.483769 56.364467 -6.181735 -3.003038 85.447091 -6.923560 -6.395288 77.932453 -6.793224 -5.496647 59.847851 -6.669241 -3.422527 77.878058 -6.791873 -5.490226 76.332249 -6.760340 -5.326872 61.806751 -6.921734 -3.692066 74.061613 -6.680731 -5.042386 75.744662 -6.733394 -5.238976 0.118041 -17.273979 -16.465848 -14.363516 0.849705 36.837720 6.284289 -28.987543 -14.292511 0.000010 -0.000011 -4.361540 1.054724 12.332105 -37.847844 4.058220 5.098698 69.901184 -6.835738 5.839057 -0.623544 2.222485 0.410677 -24.825081 
1.402080 91.815000 26.360000 -4.729772 -25.405387 10.496712 -0.715076 4.092834 10.600646 -0.906900 0.565313 -0.251504 -0.907144 0.556550 -0.116715 -6.020575 2.609876 2.680042 7.597185 3.853771 -11.633071 0.000000 0.000000 0.000000 0.000000 0.000000 0.000000 0.000000 0.000000 0.000000 -1.662236 -5.614863 1.093949 -56.453156 14.832995 -3.233305 0.000046 -68.417600 -0.000047 -7.676560 -3.124731 9.068156 -6.036043 -6.332250 0.008185 -13.052362 1.560502 -0.178545 -10.075548 1.208978 -0.106561 9.209339 17.419749 1.633192 -0.717186 2.743469 1.509340 2.952136 -0.747894 -2.010701 -3.951024 -7.431593 0.080975 -9.174950 1.101899 -0.088420 -7.170424 0.862643 -0.054046 -8.546719 -5.318327 -0.063345 -18.143995 2.151271 -0.343528 -13.564851 1.620621 -0.192755 -10.032025 -0.666127 -0.135481 -23.111364 -1.079251 1.043865 -15.906141 1.893470 -0.264554 -7.408733 7.930965 -4.945328 53.791591 -3.319053 40.662404 -0.000827 89.632500 -0.001062 15.300752 3.903424 6.515460 58.087135 -6.357135 -3.177035 82.517654 -6.886680 -6.043020 77.138332 -6.781571 -5.399216 -7.946681 -15.186573 7.786883 11.046771 -7.589211 19.617588 -12.451796 -38.693627 2.478752 56.713438 -6.289441 -3.029018 85.447091 -6.923560 -6.395288 77.916289 -6.792838 -5.494739 60.224339 -6.494286 -3.437343 77.896458 -6.792327 -5.492376 76.294512 -6.760985 -5.293213 62.213429 -6.611625 -3.703726 74.061613 -6.680731 -5.042386 75.695343 -6.731932 -5.233180 -0.839547 -16.963491 -16.474441 -13.855255 1.268748 37.717563 9.356590 -28.937407 -16.454449 0.000006 0.000017 -4.941030 1.770495 12.415085 -42.681286 5.167867 5.653815 72.887221 -7.112355 7.198697 -0.108329 0.590875 0.117697 -21.808248 
